<svg xmlns="http://www.w3.org/2000/svg" xmlns:xlink="http://www.w3.org/1999/xlink" viewBox="0 0 900 430" width="900" height="430" role="img" xmlns:c2pa="http://c2pa.org/manifest"><metadata><c2pa:manifest>AAAWgmp1bWIAAAAeanVtZGMycGEAEQAQgAAAqgA4m3EDYzJwYQAAABZcanVtYgAAAEdqdW1kYzJtYQARABCAAACqADibcQN1cm46YzJwYTplOWVmMDQzOC1jMDk0LTQ4YjEtODcyOS1jYTkxY2RkOGFlMjQAAAADl2p1bWIAAAApanVtZGMyYXMAEQAQgAAAqgA4m3EDYzJwYS5hc3NlcnRpb25zAAAAALxqdW1iAAAARGp1bWRjYm9yABEAEIAAAKoAOJtxE2MycGEuaW5ncmVkaWVudC52MwAAAAAYYzJzaIxIFiAtByR8VBcwZDle+a0AAABwY2JvcqNpZGM6Zm9ybWF0bWltYWdlL3N2Zyt4bWxqaW5zdGFuY2VJRHgseG1wOmlpZDo5YmVlODQyNi1mMDc3LTQ3YTQtOWU0MC0yZDc3NDJkZDAzMzJscmVsYXRpb25zaGlwaHBhcmVudE9mAAAB4mp1bWIAAABBanVtZGNib3IAEQAQgAAAqgA4m3ETYzJwYS5hY3Rpb25zLnYyAAAAABhjMnNoDi5X+7jf1EARupD3G03ahAAAAZljYm9yomdhY3Rpb25zgqJmYWN0aW9ua2MycGEub3BlbmVkanBhcmFtZXRlcnOha2luZ3JlZGllbnRzgaJjdXJseC1zZWxmI2p1bWJmPWMycGEuYXNzZXJ0aW9ucy9jMnBhLmluZ3JlZGllbnQudjNkaGFzaFgguxAVLhI6CQCCor81POq+dkPyBIIgL38AEcP1PlsjAmGkZmFjdGlvbngdY29tLmFudGhyb3BpYy5jbGF1ZGUucHJvdmlkZWRqcGFyYW1ldGVyc6F4H2NvbS5hbnRocm9waWMub3JpZ2luLWNvbmZpZGVuY2VndW5rbm93bmtkZXNjcmlwdGlvbnhmQ2xhdWRlIHByb3ZpZGVkIHRoaXMgZmlsZSBhdCB0aGUgcmVxdWVzdCBvZiBhIHVzZXIgYW5kIG1heSBoYXZlIGNyZWF0ZWQgb3IgbW9kaWZpZWQgdGhlIGZpbGUgY29udGVudHMubXNvZnR3YXJlQWdlbnShZG5hbWVmQ2xhdWRlcmFsbEFjdGlvbnNJbmNsdWRlZPUAAADIanVtYgAAAEBqdW1kY2JvcgARABCAAACqADibcRNjMnBhLmhhc2guZGF0YQAAAAAYYzJzaCPZsXFMNdinTEXy3IDPle8AAACAY2JvcqVjYWxnZnNoYTI1NmNwYWRNAAAAAAAAAAAAAAAAAGRoYXNoWCCkeO9ZtqeJVBqOvhsFfCdD9DW1X/r3f4f+NvP8nx5c32RuYW1lbmp1bWJmIG1hbmlmZXN0amV4Y2x1c2lvbnOBomVzdGFydBjMZmxlbmd0aBkeBAAAAj5qdW1iAAAAJ2p1bWRjMmNsABEAEIAAAKoAOJtxA2MycGEuY2xhaW0udjIAAAACD2Nib3KlY2FsZ2ZzaGEyNTZpc2lnbmF0dXJleE1zZWxmI2p1bWJmPS9jMnBhL3VybjpjMnBhOmU5ZWYwNDM4LWMwOTQtNDhiMS04NzI5LWNhOTFjZGQ4YWUyNC9jMnBhLnNpZ25hdHVyZWppbnN0YW5jZUlEeCx4bXA6aWlkOjhjYzdkY2JjLTg3ODktNDAwMC04MmEzLWU1ZTljODVkNzRjZXJjcmVhdGVkX2Fzc2VydGlvbnODomN1cmx4LXNlbGYjanVtYmY9YzJwYS5hc3NlcnRpb25zL2MycGEuaW5ncmVkaWVudC52M2RoYXNoWCC7EBUuEjoJAIKivzU86r52Q/IEgiAvfwARw/U+WyMCYaJjdXJseCpzZWxmI2p1bWJmPWMycGEuYXNzZXJ0aW9ucy9jMnBhLmFjdGlvbnMudjJkaGFzaFggvwQphWLIp3aVWNS7JgxozZOaBT8ZB6+5qm1eHpsneg2iY3VybHgpc2VsZiNqdW1iZj1jMnBhLmFzc2VydGlvbnMvYzJwYS5oYXNoLmRhdGFkaGFzaFgg96S1TeGxGZ8H0SJ5mEgDMsLykZZ6FyFuzmvt8bO1JCt0Y2xhaW1fZ2VuZXJhdG9yX2luZm+jZG5hbWVvQW50aHJvcGljIEZpbGVzZ3ZlcnNpb25lMS4wLjBrc3BlY1ZlcnNpb25lMi40LjAAABA4anVtYgAAAChqdW1kYzJjcwARABCAAACqADibcQNjMnBhLnNpZ25hdHVyZQAAABAIY2JvctKEWQISogEmGCFZAgowggIGMIIBjaADAgECAhRA5aAK7sI50L64g/oGQgU9Z1UTADAKBggqhkjOPQQDAzBJMRcwFQYDVQQKEw5BbnRocm9waWMsIFBCQzEuMCwGA1UEAxMlQW50aHJvcGljIENvbnRlbnQgQ3JlZGVudGlhbHMgUm9vdCBDQTAeFw0yNjA4MDcxODQzNTZaFw0yODA4MDYxOTQzNTZaMEQxFzAVBgNVBAoTDkFudGhyb3BpYywgUEJDMSkwJwYDVQQDEyBBbnRocm9waWMgQ2xhdWRlIENvbnRlbnQgU2lnbmluZzBZMBMGByqGSM49AgEGCCqGSM49AwEHA0IABJh6CmvLUBgFFNU0vUKlOVtE6djd17L5SuwX0LemFisBM3dkd/3cyjxFA3Qo5S46fX0/ihY0VZ7mfb9KF703t5OjWDBWMA4GA1UdDwEB/wQEAwIHgDAVBgNVHSUEDjAMBgorBgEEAYPoXgIBMAwGA1UdEwEB/wQCMAAwHwYDVR0jBBgwFoAUzlHiBIFOZFsj+OPEz5o+nMHXXMIwCgYIKoZIzj0EAwMDZwAwZAIwMXMdFJ4BetLLVY7ORuE9noqbbAZOZn/aArXyTwFAZfKrPzxF2vPoJNf1+UCdg1XGAjBwX1zd9WGqYkqmL5SFqw1QySjr1zJfpJM9+1rdDwSPLMOPOjKuiXjoU/pUUeG9RwmhY3BhZFkNngAAAAAAAAAAAAAAAAAAAAAAAAAAAAAAAAAAAAAAAAAAAAAAAAAAAAAAAAAAAAAAAAAAAAAAAAAAAAAAAAAAAAAAAAAAAAAAAAAAAAAAAAAAAAAAAAAAAAAAAAAAAAAAAAAAAAAAAAAAAAAAAAAAAAAAAAAAAAAAAAAAAAAAAAAAAAAAAAAAAAAAAAAAAAAAAAAAAAAAAAAAAAAAAAAAAAAAAAAAAAAAAAAAAAAAAAAAAAAAAAAAAAAAAAAAAAAAAAAAAAAAAAAAAAAAAAAAAAAAAAAAAAAAAAAAAAAAAAAAAAAAAAAAAAAAAAAAAAAAAAAAAAAAAAAAAAAAAAAAAAAAAAAAAAAAAAAAAAAAAAAAAAAAAAAAAAAAAAAAAAAAAAAAAAAAAAAAAAAAAAAAAAAAAAAAAAAAAAAAAAAAAAAAAAAAAAAAAAAAAAAAAAAAAAAAAAAAAAAAAAAAAAAAAAAAAAAAAAAAAAAAAAAAAAAAAAAAAAAAAAAAAAAAAAAAAAAAAAAAAAAAAAAAAAAAAAAAAAAAAAAAAAAAAAAAAAAAAAAAAAAAAAAAAAAAAAAAAAAAAAAAAAAAAAAAAAAAAAAAAAAAAAAAAAAAAAAAAAAAAAAAAAAAAAAAAAAAAAAAAAAAAAAAAAAAAAAAAAAAAAAAAAAAAAAAAAAAAAAAAAAAAAAAAAAAAAAAAAAAAAAAAAAAAAAAAAAAAAAAAAAAAAAAAAAAAAAAAAAAAAAAAAAAAAAAAAAAAAAAAAAAAAAAAAAAAAAAAAAAAAAAAAAAAAAAAAAAAAAAAAAAAAAAAAAAAAAAAAAAAAAAAAAAAAAAAAAAAAAAAAAAAAAAAAAAAAAAAAAAAAAAAAAAAAAAAAAAAAAAAAAAAAAAAAAAAAAAAAAAAAAAAAAAAAAAAAAAAAAAAAAAAAAAAAAAAAAAAAAAAAAAAAAAAAAAAAAAAAAAAAAAAAAAAAAAAAAAAAAAAAAAAAAAAAAAAAAAAAAAAAAAAAAAAAAAAAAAAAAAAAAAAAAAAAAAAAAAAAAAAAAAAAAAAAAAAAAAAAAAAAAAAAAAAAAAAAAAAAAAAAAAAAAAAAAAAAAAAAAAAAAAAAAAAAAAAAAAAAAAAAAAAAAAAAAAAAAAAAAAAAAAAAAAAAAAAAAAAAAAAAAAAAAAAAAAAAAAAAAAAAAAAAAAAAAAAAAAAAAAAAAAAAAAAAAAAAAAAAAAAAAAAAAAAAAAAAAAAAAAAAAAAAAAAAAAAAAAAAAAAAAAAAAAAAAAAAAAAAAAAAAAAAAAAAAAAAAAAAAAAAAAAAAAAAAAAAAAAAAAAAAAAAAAAAAAAAAAAAAAAAAAAAAAAAAAAAAAAAAAAAAAAAAAAAAAAAAAAAAAAAAAAAAAAAAAAAAAAAAAAAAAAAAAAAAAAAAAAAAAAAAAAAAAAAAAAAAAAAAAAAAAAAAAAAAAAAAAAAAAAAAAAAAAAAAAAAAAAAAAAAAAAAAAAAAAAAAAAAAAAAAAAAAAAAAAAAAAAAAAAAAAAAAAAAAAAAAAAAAAAAAAAAAAAAAAAAAAAAAAAAAAAAAAAAAAAAAAAAAAAAAAAAAAAAAAAAAAAAAAAAAAAAAAAAAAAAAAAAAAAAAAAAAAAAAAAAAAAAAAAAAAAAAAAAAAAAAAAAAAAAAAAAAAAAAAAAAAAAAAAAAAAAAAAAAAAAAAAAAAAAAAAAAAAAAAAAAAAAAAAAAAAAAAAAAAAAAAAAAAAAAAAAAAAAAAAAAAAAAAAAAAAAAAAAAAAAAAAAAAAAAAAAAAAAAAAAAAAAAAAAAAAAAAAAAAAAAAAAAAAAAAAAAAAAAAAAAAAAAAAAAAAAAAAAAAAAAAAAAAAAAAAAAAAAAAAAAAAAAAAAAAAAAAAAAAAAAAAAAAAAAAAAAAAAAAAAAAAAAAAAAAAAAAAAAAAAAAAAAAAAAAAAAAAAAAAAAAAAAAAAAAAAAAAAAAAAAAAAAAAAAAAAAAAAAAAAAAAAAAAAAAAAAAAAAAAAAAAAAAAAAAAAAAAAAAAAAAAAAAAAAAAAAAAAAAAAAAAAAAAAAAAAAAAAAAAAAAAAAAAAAAAAAAAAAAAAAAAAAAAAAAAAAAAAAAAAAAAAAAAAAAAAAAAAAAAAAAAAAAAAAAAAAAAAAAAAAAAAAAAAAAAAAAAAAAAAAAAAAAAAAAAAAAAAAAAAAAAAAAAAAAAAAAAAAAAAAAAAAAAAAAAAAAAAAAAAAAAAAAAAAAAAAAAAAAAAAAAAAAAAAAAAAAAAAAAAAAAAAAAAAAAAAAAAAAAAAAAAAAAAAAAAAAAAAAAAAAAAAAAAAAAAAAAAAAAAAAAAAAAAAAAAAAAAAAAAAAAAAAAAAAAAAAAAAAAAAAAAAAAAAAAAAAAAAAAAAAAAAAAAAAAAAAAAAAAAAAAAAAAAAAAAAAAAAAAAAAAAAAAAAAAAAAAAAAAAAAAAAAAAAAAAAAAAAAAAAAAAAAAAAAAAAAAAAAAAAAAAAAAAAAAAAAAAAAAAAAAAAAAAAAAAAAAAAAAAAAAAAAAAAAAAAAAAAAAAAAAAAAAAAAAAAAAAAAAAAAAAAAAAAAAAAAAAAAAAAAAAAAAAAAAAAAAAAAAAAAAAAAAAAAAAAAAAAAAAAAAAAAAAAAAAAAAAAAAAAAAAAAAAAAAAAAAAAAAAAAAAAAAAAAAAAAAAAAAAAAAAAAAAAAAAAAAAAAAAAAAAAAAAAAAAAAAAAAAAAAAAAAAAAAAAAAAAAAAAAAAAAAAAAAAAAAAAAAAAAAAAAAAAAAAAAAAAAAAAAAAAAAAAAAAAAAAAAAAAAAAAAAAAAAAAAAAAAAAAAAAAAAAAAAAAAAAAAAAAAAAAAAAAAAAAAAAAAAAAAAAAAAAAAAAAAAAAAAAAAAAAAAAAAAAAAAAAAAAAAAAAAAAAAAAAAAAAAAAAAAAAAAAAAAAAAAAAAAAAAAAAAAAAAAAAAAAAAAAAAAAAAAAAAAAAAAAAAAAAAAAAAAAAAAAAAAAAAAAAAAAAAAAAAAAAAAAAAAAAAAAAAAAAAAAAAAAAAAAAAAAAAAAAAAAAAAAAAAAAAAAAAAAAAAAAAAAAAAAAAAAAAAAAAAAAAAAAAAAAAAAAAAAAAAAAAAAAAAAAAAAAAAAAAAAAAAAAAAAAAAAAAAAAAAAAAAAAAAAAAAAAAAAAAAAAAAAAAAAAAAAAAAAAAAAAAAAAAAAAAAAAAAAAAAAAAAAAAAAAAAAAAAAAAAAAAAAAAAAAAAAAAAAAAAAAAAAAAAAAAAAAAAAAAAAAAAAAAAAAAAAAAAAAAAAAAAAAAAAAAAAAAAAAAAAAAAAAAAAAAAAAAAAAAAAAAAAAAAAAAAAAAAAAAAAAAAAAAAAAAAAAAAAAAAAAAAAAAAAAAAAAAAAAAAAAAAAAAAAAAAAAAAAAAAAAAAAAAAAAAAAAAAAAAAAAAAAAAAAAAAAAAAAAAAAAAAAAAAAAAAAAAAAAAAAAAAAAAAAAAAAAAAAAAAAAAAAAAAAAAAAAAAAAAAAAAAAAAAAAAAAAAAAAAAAAAAAAAAAAAAAAAAAAAAAAAAAAAAAAAAAAAAAAAAAAAAAAAAAAAAAAAAAAAAAAAAAAAAAAAAAAAAAAAAAAAAAAAAAAAAAAAAAAAAAAAAAAAAAAAAAAAAAAAAAAAAAAAAAAAAAAAAAAAAAAAAAAAAAAAAAAAAAAAAAAAAAAAAAAAAAAAAAAAAAAAAAAAAAAAAAAAAAAAAAAAAAAAAAAAAAAAAAAAAAAAAAAAAAAAAAAAAAAAAAAAAAAAAAAAAAAAAAAAAAAAAAAAAAAAAAAAAAAAAAAAAAAAAAAAAAAAAAAAAAAAAAAAAAAAAAAAAAAAAAAAAAAAAAAAAAAAAAAAAAAAAAAAAAAAAAAAAAAAAAAAAAAAAAAAAAAAAAAAAAAAAAAAAAAAAAAAAAAAAAAAAAAAAAAAAAAAAAAAAAAAAAAAAAAAAAAAAAAAAAAAAAAAAAAAAAAAAAAAAAAAAAAAAAAAAAAAAAAAAAAAAAAAAAAAAAAAAAAAAAAAAAAAAAAAAAAAAAAAAAAAAAAAAAAAAAAAAAAAAAAAAAAAAAAAAAAAAAAAAAAAAAAAAAAAAAAAAAAAAAAAAAAAAAAAAAAAAAAAAAAAAAAAAAAAAAAAAAAAAAAAAAAAAAAAAAAAAAAAAAAAAAAAAAAAAAAAAAAAAAAAAAAAAAAAAAAAAAAAAAAAAAAAAAAAAAAAAAAAAAAAAAAAAAAAAAAAAAAAAAAAAAAAAAAAAAAAAAAAAAAAAAAAAAAAAAAAAAAAAAAAAAAAAAAAAAAAAAAAAAAAAAAAAAAAAAAAAAAAAAAAAAAAAAAAAAAAAAAAAAAAAAAAAAAAAAAAAAAAAAAAAAAAAAAAAAAAAAAAAAAAAAAAAAAAAAAAAAAAAAAAAAAAAAAAAAAAAAAAAAAAAAAAAAAAAAAAAAAAAAAAAAAAAAAAAAAAAAAAAAAAAAAAAAAAAAAAAAAAAAAAAAAAAAAAAAAAAAAAAAAAAAAAAAAAAAAAAAAAAAAAAAAAAAAAAAAAAAAAAAAAAAAAAAAAAAAAAAAAAAAAAAAAAAAAAAAAAAAAAAAAAAAAAAAAAAAAAAAAAAAAAAAAAAAAAAAAAAAAAAAAAAPZYQHot6vPfyj/XmUta3dKkP6LqAYsjafYOghj6ZNdALa0S7dAONmUVsuAReI1DGtYj/vq2UZY7hGvgatN8at4g3F0=</c2pa:manifest></metadata><title>Shehab Shibli: Network Engineer and Cybersecurity Specialist</title><desc>Animated banner: a radar hub connected to living symbols of his projects: a sheep-detecting camera, an orbiting satellite, a shield blocking scam messages, a honeycomb with a bee, plus phishing and QR icons.</desc><defs>
<linearGradient id="bg" x1="0" y1="0" x2="1" y2="1"><stop offset="0" stop-color="#0B0B10"/><stop offset=".55" stop-color="#14100A"/><stop offset="1" stop-color="#2B2110"/></linearGradient>
<radialGradient id="glow" cx="660" cy="210" r="360" gradientUnits="userSpaceOnUse"><stop offset="0" stop-color="#C9A84C" stop-opacity=".26"/><stop offset="1" stop-color="#C9A84C" stop-opacity="0"/></radialGradient>
<radialGradient id="glow2" cx="90" cy="420" r="300" gradientUnits="userSpaceOnUse"><stop offset="0" stop-color="#5EEAD4" stop-opacity=".09"/><stop offset="1" stop-color="#5EEAD4" stop-opacity="0"/></radialGradient>
<linearGradient id="nameg" x1="0" x2="1"><stop offset="0" stop-color="#F5E7B8"/><stop offset="1" stop-color="#C9A84C"/></linearGradient>
<linearGradient id="shg" x1="0" x2="1"><stop offset="0" stop-color="#fff" stop-opacity="0"/><stop offset=".5" stop-color="#fff" stop-opacity=".95"/><stop offset="1" stop-color="#fff" stop-opacity="0"/></linearGradient>
<linearGradient id="glg" x1="0" x2="1"><stop offset="0" stop-color="#fff" stop-opacity="0"/><stop offset=".5" stop-color="#F5E7B8" stop-opacity=".09"/><stop offset="1" stop-color="#fff" stop-opacity="0"/></linearGradient>
<radialGradient id="earth" cx=".35" cy=".3" r=".9"><stop offset="0" stop-color="#2C7A86"/><stop offset=".55" stop-color="#0E3A45"/><stop offset="1" stop-color="#06161C"/></radialGradient>
<linearGradient id="tf" x1="0" x2="1"><stop offset="0" stop-color="#fff" stop-opacity="0"/><stop offset=".07" stop-color="#fff"/><stop offset=".93" stop-color="#fff"/><stop offset="1" stop-color="#fff" stop-opacity="0"/></linearGradient>
<mask id="tm"><rect width="900" height="40" fill="url(#tf)"/></mask>
<clipPath id="card"><rect width="900" height="430" rx="18"/></clipPath>
<clipPath id="c42"><circle r="42"/></clipPath><clipPath id="c21"><circle r="21"/></clipPath>
<clipPath id="shc"><path d="M0,-22 L17,-14 V3 C17,15 8,22 0,26 C-8,22 -17,15 -17,3 V-14 Z"/></clipPath>
<clipPath id="nc"><text x="46" y="176" font-size="54" font-weight="800" letter-spacing="1" style="font-family:'Segoe UI','SF Pro Display',-apple-system,'Helvetica Neue',Arial,sans-serif">Shehab Shibli</text></clipPath>
<pattern id="grid" width="30" height="30" patternUnits="userSpaceOnUse"><path d="M30 0H0V30" fill="none" stroke="#ffffff" stroke-opacity=".035"/></pattern>
</defs><style>.sans{font-family:'Segoe UI','SF Pro Display',-apple-system,'Helvetica Neue',Arial,sans-serif}.mono{font-family:'SF Mono','JetBrains Mono',Consolas,Menlo,'DejaVu Sans Mono',monospace}@media (prefers-reduced-motion:reduce){*{animation:none!important}}
@keyframes spin{to{transform:rotate(360deg)}}
@keyframes flow{to{stroke-dashoffset:-32}}
@keyframes tw{0%,100%{opacity:.25}50%{opacity:1}}
@keyframes rise{from{opacity:0;transform:translateY(16px)}}
@keyframes draw{from{stroke-dashoffset:260}}
@keyframes dust{0%{transform:translateY(0);opacity:0}10%{opacity:.85}90%{opacity:.6}100%{transform:translateY(-470px);opacity:0}}
@keyframes ping{0%{transform:scale(1);opacity:.8}100%{transform:scale(3);opacity:0}}
@keyframes hping{0%{transform:scale(.4);opacity:.9}12%,100%{transform:scale(1.9);opacity:0}}
@keyframes shine{0%,55%{transform:translateX(0) skewX(-20deg)}100%{transform:translateX(560px) skewX(-20deg)}}
@keyframes glint{0%{transform:translateX(-320px) skewX(-18deg)}45%,100%{transform:translateX(1250px) skewX(-18deg)}}
@keyframes chase{to{stroke-dashoffset:-1000}}
@keyframes tick{to{transform:translateX(-1052px)}}
@keyframes hs{0%,100%{stroke-opacity:.7}50%{stroke-opacity:1}}
@keyframes lane{to{stroke-dashoffset:36}}
@keyframes walk{from{transform:translateX(-56px)}to{transform:translateX(56px)}}
@keyframes legsw{from{transform:rotate(-28deg)}to{transform:rotate(28deg)}}
@keyframes bx{0%,100%{stroke-opacity:1}50%{stroke-opacity:.2}}
@keyframes rip{0%{transform:scale(.5);opacity:.8}100%{transform:scale(1.6);opacity:0}}
@keyframes wf{0%,100%{opacity:.15}40%{opacity:1}}
@keyframes netp{0%{transform:scale(.4);opacity:.9}100%{transform:scale(1.9);opacity:0}}
@keyframes lz{0%,100%{opacity:.2}50%{opacity:1}}
@keyframes scn{0%{transform:translateY(0)}100%{transform:translateY(40px)}}
@keyframes bA{0%{transform:translate(-46px,-5px);opacity:0}5%{opacity:1}15%{transform:translate(-25px,-5px)}19%{transform:translate(-29px,-5px)}27%{transform:translate(-44px,-5px);opacity:1}34%,100%{transform:translate(-48px,-5px);opacity:0}}
@keyframes bB{0%,40%{transform:translate(-46px,7px);opacity:0}45%{opacity:1}58%{transform:translate(-8px,7px);opacity:.3}68%{transform:translate(8px,7px);opacity:.3}84%{transform:translate(46px,7px);opacity:1}92%,100%{transform:translate(50px,7px);opacity:0}}
@keyframes xm{0%,14%{opacity:0;transform:scale(.4)}18%{opacity:1;transform:scale(1.25)}26%{transform:scale(1)}34%,100%{opacity:0}}
@keyframes ck{0%,56%{opacity:0;transform:scale(.4)}62%{opacity:1;transform:scale(1.25)}70%{transform:scale(1)}80%,100%{opacity:0}}
@keyframes shl{0%,14%{stroke:#C9A84C}18%{stroke:#F87171}30%,56%{stroke:#C9A84C}62%{stroke:#86EFAC}76%,100%{stroke:#C9A84C}}
@keyframes hp{0%{fill:#12121A;stroke:#4a4a5e}6%{fill:#5a4a18;stroke:#C9A84C}26%,100%{fill:#12121A;stroke:#4a4a5e}}
@keyframes wg{from{transform:scaleY(.2)}to{transform:scaleY(1)}}
@keyframes bob{0%,100%{transform:translateY(0)}50%{transform:translateY(2.5px)}}
@keyframes swing{from{transform:rotate(-16deg)}to{transform:rotate(16deg)}}
@keyframes alrt{0%,100%{opacity:1}50%{opacity:.25}}
@keyframes qc{0%,100%{opacity:.15}50%{opacity:1}}
@keyframes qs{from{transform:translateY(-12px)}to{transform:translateY(14px)}}
.spin{animation:spin 30s linear infinite}
.flow{animation:flow 2.5s linear infinite}
.tw{animation:tw 3s ease-in-out infinite}
.rise{animation:rise .9s cubic-bezier(.2,.7,.2,1) both}
.uline{stroke-dasharray:260;animation:draw 1.5s cubic-bezier(.2,.7,.2,1) .55s both}
.uhead{animation:uh 1.5s cubic-bezier(.2,.7,.2,1) .55s both}
@keyframes uh{from{transform:translateX(0);opacity:1}90%{opacity:1}to{transform:translateX(252px);opacity:0}}
.dust{animation:dust 24s linear infinite}
.ping{transform-box:fill-box;transform-origin:center;animation:ping 2.2s ease-out infinite}
.hping{animation:hping 3.4s ease-out infinite}
.shine{animation:shine 7s ease-in-out 2.4s infinite}
.glint{animation:glint 10s ease-in-out 3s infinite}
.chase{animation:chase 9s linear infinite}
.tick{animation:tick 31s linear infinite}
.hshield{animation:hs 2.4s ease-in-out infinite}
.lane{animation:lane 1.1s linear infinite}
.walk{animation:walk 6.5s linear infinite}
.leg{animation:legsw .55s ease-in-out infinite alternate}
.bx{animation:bx 1s ease-in-out infinite}
.rip{transform-box:fill-box;transform-origin:center;animation:rip 1.8s ease-out infinite}
.wf{animation:wf 1.4s ease-in-out infinite}
.net{transform-box:fill-box;transform-origin:center;animation:netp 2.2s ease-out infinite}
.lz{animation:lz 1s ease-in-out infinite}
.scn{animation:scn 1.6s ease-in-out infinite alternate}
.bA{transform:translate(-48px,-5px);opacity:0;animation:bA 8s linear infinite}
.bB{transform:translate(-48px,7px);opacity:0;animation:bB 8s linear infinite}
.xm{transform-box:fill-box;transform-origin:center;opacity:0;animation:xm 8s linear infinite}
.ck{transform-box:fill-box;transform-origin:center;opacity:0;animation:ck 8s linear infinite}
.shl{animation:shl 8s linear infinite}
.hp{animation:hp 3.2s ease-out infinite}
.wg{transform-box:fill-box;transform-origin:center;animation:wg .09s ease-in-out infinite alternate}
.bob{animation:bob 2s ease-in-out infinite}
.swing{animation:swing 2.4s ease-in-out infinite alternate}
.alrt{animation:alrt 1s ease-in-out infinite}
.qc{animation:qc 2.4s ease-in-out infinite}
.qs{animation:qs 1.8s ease-in-out infinite alternate}
</style>
<g clip-path="url(#card)">
<rect width="900" height="430" fill="url(#bg)"/><rect width="900" height="430" fill="url(#grid)"/>
<rect width="900" height="430" fill="url(#glow)"/>
<circle class="dust" style="animation-duration:26.0s;animation-delay:-14.5s" cx="823" cy="440" r="1.0" fill="#5EEAD4"/><circle class="dust" style="animation-duration:27.2s;animation-delay:-16.0s" cx="173" cy="440" r="1.4" fill="#5EEAD4"/><circle class="dust" style="animation-duration:29.9s;animation-delay:-23.7s" cx="93" cy="440" r="1.0" fill="#F5E7B8"/><circle class="dust" style="animation-duration:18.0s;animation-delay:-14.6s" cx="620" cy="440" r="0.7" fill="#5EEAD4"/><circle class="dust" style="animation-duration:37.2s;animation-delay:-24.3s" cx="552" cy="440" r="0.7" fill="#F5E7B8"/><circle class="dust" style="animation-duration:34.3s;animation-delay:-2.2s" cx="41" cy="440" r="0.7" fill="#F5E7B8"/><circle class="dust" style="animation-duration:33.1s;animation-delay:-10.8s" cx="530" cy="440" r="0.7" fill="#F5E7B8"/><circle class="dust" style="animation-duration:30.1s;animation-delay:-15.0s" cx="593" cy="440" r="1.0" fill="#C9A84C"/><circle class="dust" style="animation-duration:24.9s;animation-delay:-13.8s" cx="830" cy="440" r="0.7" fill="#C9A84C"/><circle class="dust" style="animation-duration:22.9s;animation-delay:-5.3s" cx="264" cy="440" r="0.7" fill="#F5E7B8"/><circle class="dust" style="animation-duration:24.8s;animation-delay:-21.0s" cx="350" cy="440" r="0.7" fill="#F5E7B8"/><circle class="dust" style="animation-duration:20.7s;animation-delay:-19.2s" cx="56" cy="440" r="1.0" fill="#5EEAD4"/><circle class="dust" style="animation-duration:25.2s;animation-delay:-14.3s" cx="185" cy="440" r="1.4" fill="#C9A84C"/><circle class="dust" style="animation-duration:23.4s;animation-delay:-7.3s" cx="23" cy="440" r="1.0" fill="#F5E7B8"/><circle class="dust" style="animation-duration:19.0s;animation-delay:-13.4s" cx="20" cy="440" r="1.0" fill="#5EEAD4"/><circle class="dust" style="animation-duration:19.9s;animation-delay:-11.1s" cx="404" cy="440" r="0.7" fill="#F5E7B8"/><circle class="dust" style="animation-duration:25.2s;animation-delay:-9.7s" cx="357" cy="440" r="0.7" fill="#F5E7B8"/><circle class="dust" style="animation-duration:21.9s;animation-delay:-21.3s" cx="717" cy="440" r="1.0" fill="#F5E7B8"/><circle class="dust" style="animation-duration:20.6s;animation-delay:-8.1s" cx="762" cy="440" r="1.4" fill="#F5E7B8"/><circle class="dust" style="animation-duration:16.9s;animation-delay:-2.5s" cx="399" cy="440" r="0.7" fill="#C9A84C"/><circle class="dust" style="animation-duration:34.3s;animation-delay:-13.2s" cx="75" cy="440" r="0.7" fill="#F5E7B8"/><circle class="dust" style="animation-duration:16.3s;animation-delay:-6.0s" cx="557" cy="440" r="0.7" fill="#5EEAD4"/><circle class="dust" style="animation-duration:34.3s;animation-delay:-4.7s" cx="350" cy="440" r="1.4" fill="#F5E7B8"/><circle class="dust" style="animation-duration:22.8s;animation-delay:-5.2s" cx="547" cy="440" r="1.4" fill="#F5E7B8"/><circle class="dust" style="animation-duration:19.5s;animation-delay:-12.3s" cx="497" cy="440" r="1.4" fill="#5EEAD4"/><circle class="dust" style="animation-duration:35.4s;animation-delay:-21.4s" cx="381" cy="440" r="0.7" fill="#F5E7B8"/><circle class="dust" style="animation-duration:16.9s;animation-delay:-16.2s" cx="220" cy="440" r="1.4" fill="#5EEAD4"/><circle class="dust" style="animation-duration:21.7s;animation-delay:-17.8s" cx="535" cy="440" r="1.0" fill="#F5E7B8"/><circle class="dust" style="animation-duration:36.4s;animation-delay:-35.6s" cx="121" cy="440" r="1.0" fill="#F5E7B8"/><circle class="dust" style="animation-duration:22.2s;animation-delay:-20.3s" cx="190" cy="440" r="0.7" fill="#F5E7B8"/><circle class="dust" style="animation-duration:21.9s;animation-delay:-9.8s" cx="63" cy="440" r="0.7" fill="#C9A84C"/><circle class="dust" style="animation-duration:24.1s;animation-delay:-13.8s" cx="126" cy="440" r="1.0" fill="#F5E7B8"/><circle class="dust" style="animation-duration:35.6s;animation-delay:-34.9s" cx="588" cy="440" r="1.4" fill="#F5E7B8"/><circle class="dust" style="animation-duration:29.0s;animation-delay:-26.8s" cx="428" cy="440" r="1.0" fill="#C9A84C"/><circle class="dust" style="animation-duration:37.2s;animation-delay:-0.8s" cx="570" cy="440" r="1.0" fill="#F5E7B8"/><circle class="dust" style="animation-duration:32.1s;animation-delay:-10.2s" cx="889" cy="440" r="0.7" fill="#5EEAD4"/><circle class="dust" style="animation-duration:28.0s;animation-delay:-20.6s" cx="802" cy="440" r="1.4" fill="#F5E7B8"/><circle class="dust" style="animation-duration:33.5s;animation-delay:-30.6s" cx="320" cy="440" r="1.4" fill="#5EEAD4"/>
<line x1="660" y1="210" x2="560" y2="111" stroke="#C9A84C" stroke-opacity=".2"/><line class="flow" style="animation-duration:2.2s" x1="660" y1="210" x2="560" y2="111" stroke="#C9A84C" stroke-opacity=".55" stroke-dasharray="2 14"/><line x1="660" y1="210" x2="760" y2="111" stroke="#C9A84C" stroke-opacity=".2"/><line class="flow" style="animation-duration:2.5s" x1="660" y1="210" x2="760" y2="111" stroke="#C9A84C" stroke-opacity=".55" stroke-dasharray="2 14"/><line x1="660" y1="210" x2="560" y2="309" stroke="#C9A84C" stroke-opacity=".2"/><line class="flow" style="animation-duration:2.8s" x1="660" y1="210" x2="560" y2="309" stroke="#C9A84C" stroke-opacity=".55" stroke-dasharray="2 14"/><line x1="660" y1="210" x2="760" y2="309" stroke="#C9A84C" stroke-opacity=".2"/><line class="flow" style="animation-duration:3.1s" x1="660" y1="210" x2="760" y2="309" stroke="#C9A84C" stroke-opacity=".55" stroke-dasharray="2 14"/><line x1="660" y1="210" x2="470" y2="210" stroke="#C9A84C" stroke-opacity=".2"/><line class="flow" style="animation-duration:3.4s" x1="660" y1="210" x2="470" y2="210" stroke="#C9A84C" stroke-opacity=".55" stroke-dasharray="2 14"/><line x1="660" y1="210" x2="852" y2="210" stroke="#C9A84C" stroke-opacity=".2"/><line class="flow" style="animation-duration:3.7s" x1="660" y1="210" x2="852" y2="210" stroke="#C9A84C" stroke-opacity=".55" stroke-dasharray="2 14"/><circle r="2.6" fill="#5EEAD4"><animateMotion dur="3.4s" begin="0.00s" repeatCount="indefinite" path="M560,111 L660,210"/></circle><circle r="2.6" fill="#5EEAD4"><animateMotion dur="3.4s" begin="0.55s" repeatCount="indefinite" path="M760,111 L660,210"/></circle><circle r="2.6" fill="#5EEAD4"><animateMotion dur="3.4s" begin="1.10s" repeatCount="indefinite" path="M560,309 L660,210"/></circle><circle r="2.6" fill="#5EEAD4"><animateMotion dur="3.4s" begin="1.65s" repeatCount="indefinite" path="M760,309 L660,210"/></circle><circle r="2.6" fill="#5EEAD4"><animateMotion dur="3.4s" begin="2.20s" repeatCount="indefinite" path="M470,210 L660,210"/></circle><circle r="2.6" fill="#5EEAD4"><animateMotion dur="3.4s" begin="2.75s" repeatCount="indefinite" path="M852,210 L660,210"/></circle><circle class="hping" style="animation-delay:3.00s" cx="660" cy="210" r="24" fill="none" stroke="#5EEAD4" stroke-width="1.2"/><circle class="hping" style="animation-delay:3.55s" cx="660" cy="210" r="24" fill="none" stroke="#5EEAD4" stroke-width="1.2"/><circle class="hping" style="animation-delay:4.10s" cx="660" cy="210" r="24" fill="none" stroke="#5EEAD4" stroke-width="1.2"/><circle class="hping" style="animation-delay:4.65s" cx="660" cy="210" r="24" fill="none" stroke="#5EEAD4" stroke-width="1.2"/><circle class="hping" style="animation-delay:5.20s" cx="660" cy="210" r="24" fill="none" stroke="#5EEAD4" stroke-width="1.2"/><circle class="hping" style="animation-delay:5.75s" cx="660" cy="210" r="24" fill="none" stroke="#5EEAD4" stroke-width="1.2"/>
<g transform="translate(660 210)">
<circle r="56" fill="#0B0B10" fill-opacity=".55" stroke="#C9A84C" stroke-opacity=".4"/>
<circle r="37" fill="none" stroke="#C9A84C" stroke-opacity=".22"/><circle r="18" fill="none" stroke="#C9A84C" stroke-opacity=".18"/>
<line x1="-56" x2="56" stroke="#C9A84C" stroke-opacity=".15"/><line y1="-56" y2="56" stroke="#C9A84C" stroke-opacity=".15"/>
<g class="spin" style="animation-duration:40s;animation-direction:reverse"><line x1="61.0" y1="0.0" x2="65.0" y2="0.0" stroke="#C9A84C" stroke-opacity=".6"/><line x1="58.9" y1="15.8" x2="62.8" y2="16.8" stroke="#C9A84C" stroke-opacity=".6"/><line x1="52.8" y1="30.5" x2="56.3" y2="32.5" stroke="#C9A84C" stroke-opacity=".6"/><line x1="43.1" y1="43.1" x2="46.0" y2="46.0" stroke="#C9A84C" stroke-opacity=".6"/><line x1="30.5" y1="52.8" x2="32.5" y2="56.3" stroke="#C9A84C" stroke-opacity=".6"/><line x1="15.8" y1="58.9" x2="16.8" y2="62.8" stroke="#C9A84C" stroke-opacity=".6"/><line x1="0.0" y1="61.0" x2="0.0" y2="65.0" stroke="#C9A84C" stroke-opacity=".6"/><line x1="-15.8" y1="58.9" x2="-16.8" y2="62.8" stroke="#C9A84C" stroke-opacity=".6"/><line x1="-30.5" y1="52.8" x2="-32.5" y2="56.3" stroke="#C9A84C" stroke-opacity=".6"/><line x1="-43.1" y1="43.1" x2="-46.0" y2="46.0" stroke="#C9A84C" stroke-opacity=".6"/><line x1="-52.8" y1="30.5" x2="-56.3" y2="32.5" stroke="#C9A84C" stroke-opacity=".6"/><line x1="-58.9" y1="15.8" x2="-62.8" y2="16.8" stroke="#C9A84C" stroke-opacity=".6"/><line x1="-61.0" y1="0.0" x2="-65.0" y2="0.0" stroke="#C9A84C" stroke-opacity=".6"/><line x1="-58.9" y1="-15.8" x2="-62.8" y2="-16.8" stroke="#C9A84C" stroke-opacity=".6"/><line x1="-52.8" y1="-30.5" x2="-56.3" y2="-32.5" stroke="#C9A84C" stroke-opacity=".6"/><line x1="-43.1" y1="-43.1" x2="-46.0" y2="-46.0" stroke="#C9A84C" stroke-opacity=".6"/><line x1="-30.5" y1="-52.8" x2="-32.5" y2="-56.3" stroke="#C9A84C" stroke-opacity=".6"/><line x1="-15.8" y1="-58.9" x2="-16.8" y2="-62.8" stroke="#C9A84C" stroke-opacity=".6"/><line x1="-0.0" y1="-61.0" x2="-0.0" y2="-65.0" stroke="#C9A84C" stroke-opacity=".6"/><line x1="15.8" y1="-58.9" x2="16.8" y2="-62.8" stroke="#C9A84C" stroke-opacity=".6"/><line x1="30.5" y1="-52.8" x2="32.5" y2="-56.3" stroke="#C9A84C" stroke-opacity=".6"/><line x1="43.1" y1="-43.1" x2="46.0" y2="-46.0" stroke="#C9A84C" stroke-opacity=".6"/><line x1="52.8" y1="-30.5" x2="56.3" y2="-32.5" stroke="#C9A84C" stroke-opacity=".6"/><line x1="58.9" y1="-15.8" x2="62.8" y2="-16.8" stroke="#C9A84C" stroke-opacity=".6"/></g>
<g class="spin" style="animation-duration:5s"><path d="M0 0 L56 0 A56 56 0 0 0 19.15 -52.62 Z" fill="#C9A84C" fill-opacity="0.06"/><path d="M0 0 L56 0 A56 56 0 0 0 41.62 -37.47 Z" fill="#C9A84C" fill-opacity="0.09"/><path d="M0 0 L56 0 A56 56 0 0 0 52.62 -19.15 Z" fill="#C9A84C" fill-opacity="0.14"/><line x2="56" stroke="#F5E7B8" stroke-width="1.5" stroke-opacity=".95"/></g>
<path class="hshield" d="M0 -17 L14 -11 V3 C14 12 7 17 0 21 C-7 17 -14 12 -14 3 V-11 Z" fill="#0B0B10" fill-opacity=".9" stroke="#C9A84C" stroke-width="1.8"/>
<path d="M-5 2 L-1.5 5.5 L6.5 -4" fill="none" stroke="#F5E7B8" stroke-width="2" stroke-linecap="round" stroke-linejoin="round"/>
</g>
<g transform="translate(560 111)"><circle r="46" fill="#0B0B10" fill-opacity=".78" stroke="#C9A84C" stroke-opacity=".38"/><circle class="spin" style="animation-duration:26s;animation-direction:normal" r="50" fill="none" stroke="#C9A84C" stroke-opacity=".55" stroke-dasharray="2 9"/><path class="spin" style="animation-duration:5s;animation-direction:reverse" d="M0 -50 A50 50 0 0 1 43.5 -25.0" fill="none" stroke="#F5E7B8" stroke-width="2" stroke-linecap="round" stroke-opacity=".9"/><g clip-path="url(#c42)">
<rect x="-42" y="-42" width="84" height="84" fill="#171722"/>
<path d="M-42 14 Q-20 2 0 12 T42 8 V42 H-42Z" fill="#151520"/>
<line x1="-42" y1="21" x2="42" y2="21" stroke="#9A98A6" stroke-opacity=".4"/>
<line class="lane" x1="-42" y1="31" x2="42" y2="31" stroke="#9A98A6" stroke-opacity=".6" stroke-width="2" stroke-dasharray="10 8"/>
<g class="walk"><g transform="translate(0 8)">
  <g transform="translate(-6 5)"><g class="leg" style="animation-delay:-0.0s"><line x1="0" y1="0" x2="0" y2="8" stroke="#6b6b80" stroke-width="2" stroke-linecap="round"/></g></g><g transform="translate(-2 5)"><g class="leg" style="animation-delay:-0.275s"><line x1="0" y1="0" x2="0" y2="8" stroke="#6b6b80" stroke-width="2" stroke-linecap="round"/></g></g><g transform="translate(4 5)"><g class="leg" style="animation-delay:-0.0s"><line x1="0" y1="0" x2="0" y2="8" stroke="#6b6b80" stroke-width="2" stroke-linecap="round"/></g></g><g transform="translate(8 5)"><g class="leg" style="animation-delay:-0.275s"><line x1="0" y1="0" x2="0" y2="8" stroke="#6b6b80" stroke-width="2" stroke-linecap="round"/></g></g><circle cx="-7" cy="0" r="5.2" fill="#F5E7B8" fill-opacity=".92"/><circle cx="-2" cy="-3" r="5.2" fill="#F5E7B8" fill-opacity=".92"/><circle cx="3" cy="-3" r="5.2" fill="#F5E7B8" fill-opacity=".92"/><circle cx="8" cy="0" r="5.2" fill="#F5E7B8" fill-opacity=".92"/><circle cx="-3" cy="3" r="5.2" fill="#F5E7B8" fill-opacity=".92"/><circle cx="3" cy="3" r="5.2" fill="#F5E7B8" fill-opacity=".92"/>
  <ellipse cx="13" cy="0" rx="3.6" ry="4.2" fill="#4a4a5e"/><circle cx="14.2" cy="-1" r=".7" fill="#F5E7B8"/>
  <path class="bx" d="M-16 -5 V-11 H-10 M15 -11 H21 V-5 M-16 9 V15 H-10 M15 15 H21 V9" fill="none" stroke="#F87171" stroke-width="1.5" stroke-linecap="round"/>
  <circle class="rip" cx="2" cy="2" r="14" fill="none" stroke="#F87171" stroke-width="1.2"/>
</g></g>
<g transform="translate(22 -12)"><circle cy="2" r="1.6" fill="#F87171"/><path class="wf" style="animation-delay:0.0s" d="M-3.8 -3.8 A5 5 0 0 1 3.8 -3.8" fill="none" stroke="#F87171" stroke-width="1.5" stroke-linecap="round"/><path class="wf" style="animation-delay:0.25s" d="M-6.8 -6.8 A9 9 0 0 1 6.8 -6.8" fill="none" stroke="#F87171" stroke-width="1.5" stroke-linecap="round"/><path class="wf" style="animation-delay:0.5s" d="M-9.8 -9.8 A13 13 0 0 1 9.8 -9.8" fill="none" stroke="#F87171" stroke-width="1.5" stroke-linecap="round"/></g>
</g><text class="mono" y="-60" text-anchor="middle" font-size="9.5" font-weight="700" letter-spacing="2.4" fill="#C9A84C">DETECTION</text></g><g transform="translate(760 111)"><circle r="46" fill="#0B0B10" fill-opacity=".78" stroke="#C9A84C" stroke-opacity=".38"/><circle class="spin" style="animation-duration:32s;animation-direction:reverse" r="50" fill="none" stroke="#C9A84C" stroke-opacity=".55" stroke-dasharray="2 9"/><path class="spin" style="animation-duration:5s;animation-direction:normal" d="M0 -50 A50 50 0 0 1 43.5 -25.0" fill="none" stroke="#F5E7B8" stroke-width="2" stroke-linecap="round" stroke-opacity=".9"/><g clip-path="url(#c42)">
<rect x="-42" y="-42" width="84" height="84" fill="#07070d"/><circle class="tw" style="animation-delay:2.7s" cx="28" cy="-6" r="0.6" fill="#F5E7B8"/><circle class="tw" style="animation-delay:2.6s" cx="6" cy="9" r="0.9" fill="#F5E7B8"/><circle class="tw" style="animation-delay:1.1s" cx="-37" cy="-33" r="0.6" fill="#F5E7B8"/><circle class="tw" style="animation-delay:1.9s" cx="37" cy="29" r="1.1" fill="#F5E7B8"/><circle class="tw" style="animation-delay:1.0s" cx="33" cy="15" r="0.9" fill="#F5E7B8"/><circle class="tw" style="animation-delay:1.3s" cx="26" cy="-32" r="1.1" fill="#F5E7B8"/><circle class="tw" style="animation-delay:0.1s" cx="8" cy="-1" r="0.6" fill="#F5E7B8"/><circle class="tw" style="animation-delay:2.9s" cx="-29" cy="21" r="1.1" fill="#F5E7B8"/><circle class="tw" style="animation-delay:2.8s" cx="-19" cy="-37" r="0.9" fill="#F5E7B8"/><circle class="tw" style="animation-delay:0.4s" cx="8" cy="1" r="0.9" fill="#F5E7B8"/><circle class="tw" style="animation-delay:2.0s" cx="-4" cy="30" r="0.9" fill="#F5E7B8"/><circle class="tw" style="animation-delay:1.2s" cx="-19" cy="10" r="0.6" fill="#F5E7B8"/>
<g transform="rotate(-18)">
<path id="orbm" d="M-33,0 A33,12 0 1,1 33,0 A33,12 0 1,1 -33,0" fill="none" stroke="#C9A84C" stroke-opacity=".4" stroke-dasharray="2 4"/>
<circle r="17" fill="none" stroke="#5EEAD4" stroke-opacity=".18"/>
<circle r="12.5" fill="url(#earth)" stroke="#5EEAD4" stroke-opacity=".6"/><ellipse rx="3" ry="12.5" fill="none" stroke="#5EEAD4" stroke-opacity=".35"><animate attributeName="rx" values="3;12.5;3" dur="7s" begin="-0.00s" repeatCount="indefinite"/></ellipse><ellipse rx="3" ry="12.5" fill="none" stroke="#5EEAD4" stroke-opacity=".35"><animate attributeName="rx" values="3;12.5;3" dur="7s" begin="-2.33s" repeatCount="indefinite"/></ellipse><ellipse rx="3" ry="12.5" fill="none" stroke="#5EEAD4" stroke-opacity=".35"><animate attributeName="rx" values="3;12.5;3" dur="7s" begin="-4.66s" repeatCount="indefinite"/></ellipse>
<rect x="-1.3" y="-1.3" width="2.6" height="2.6" fill="#B9B4A8" transform="rotate(0)"><animateMotion dur="9s" begin="-1s" repeatCount="indefinite"><mpath xlink:href="#orbm"/></animateMotion></rect><rect x="-1.3" y="-1.3" width="2.6" height="2.6" fill="#B9B4A8" transform="rotate(30)"><animateMotion dur="11s" begin="-4s" repeatCount="indefinite"><mpath xlink:href="#orbm"/></animateMotion></rect><rect x="-1.3" y="-1.3" width="2.6" height="2.6" fill="#B9B4A8" transform="rotate(60)"><animateMotion dur="13s" begin="-7s" repeatCount="indefinite"><mpath xlink:href="#orbm"/></animateMotion></rect>
<g><animateMotion dur="5s" repeatCount="indefinite" rotate="auto"><mpath xlink:href="#orbm"/></animateMotion>
<circle class="net" r="6" fill="none" stroke="#C9A84C" stroke-width="1" stroke-dasharray="2 2"/>
<line class="lz" x1="4" y1="0" x2="12" y2="0" stroke="#F87171" stroke-width="1.4" stroke-linecap="round"/>
<rect x="-7" y="-1.4" width="4" height="2.8" fill="#5EEAD4"/><rect x="3" y="-1.4" width="4" height="2.8" fill="#5EEAD4"/><rect x="-2.6" y="-2.2" width="5.2" height="4.4" rx="1" fill="#C9A84C"/></g>
</g></g><text class="mono" y="-60" text-anchor="middle" font-size="9.5" font-weight="700" letter-spacing="2.4" fill="#C9A84C">S.O.S</text></g><g transform="translate(560 309)"><circle r="46" fill="#0B0B10" fill-opacity=".78" stroke="#C9A84C" stroke-opacity=".38"/><circle class="spin" style="animation-duration:32s;animation-direction:reverse" r="50" fill="none" stroke="#C9A84C" stroke-opacity=".55" stroke-dasharray="2 9"/><path class="spin" style="animation-duration:5s;animation-direction:normal" d="M0 -50 A50 50 0 0 1 43.5 -25.0" fill="none" stroke="#F5E7B8" stroke-width="2" stroke-linecap="round" stroke-opacity=".9"/><g clip-path="url(#c42)">
<rect x="-42" y="-42" width="84" height="84" fill="#171722"/>
<g class="bB"><rect x="-9" y="-5" width="18" height="10" rx="5" fill="#12121A" stroke="#86EFAC" stroke-width="1.3"/><line x1="-5" y1="-1.4" x2="5" y2="-1.4" stroke="#86EFAC" stroke-width="1" stroke-linecap="round"/><line x1="-5" y1="1.8" x2="1" y2="1.8" stroke="#86EFAC" stroke-width="1" stroke-linecap="round"/></g>
<path class="shl" d="M0,-22 L17,-14 V3 C17,15 8,22 0,26 C-8,22 -17,15 -17,3 V-14 Z" fill="#0B0B10" fill-opacity=".9" stroke="#C9A84C" stroke-width="2"/>
<g clip-path="url(#shc)"><rect class="scn" x="-18" y="-22" width="36" height="8" fill="#C9A84C" fill-opacity=".3"/><rect class="scn" x="-18" y="-14" width="36" height="1.2" fill="#F5E7B8"/></g>
<path d="M-6 3 L-2 7 L7 -5" fill="none" stroke="#C9A84C" stroke-opacity=".45" stroke-width="2" stroke-linecap="round" stroke-linejoin="round"/>
<g class="xm"><path d="M-7 -6 L7 8 M7 -6 L-7 8" stroke="#F87171" stroke-width="3" stroke-linecap="round"/></g>
<g class="ck"><path d="M-8 2 L-2 8 L9 -6" fill="none" stroke="#86EFAC" stroke-width="3" stroke-linecap="round" stroke-linejoin="round"/></g>
<g class="bA"><rect x="-9" y="-5" width="18" height="10" rx="5" fill="#12121A" stroke="#F87171" stroke-width="1.3"/><line x1="-5" y1="-1.4" x2="5" y2="-1.4" stroke="#F87171" stroke-width="1" stroke-linecap="round"/><line x1="-5" y1="1.8" x2="1" y2="1.8" stroke="#F87171" stroke-width="1" stroke-linecap="round"/></g>
</g><text class="mono" y="70" text-anchor="middle" font-size="9.5" font-weight="700" letter-spacing="2.4" fill="#C9A84C">SCAMSHIELD</text></g><g transform="translate(760 309)"><circle r="46" fill="#0B0B10" fill-opacity=".78" stroke="#C9A84C" stroke-opacity=".38"/><circle class="spin" style="animation-duration:26s;animation-direction:normal" r="50" fill="none" stroke="#C9A84C" stroke-opacity=".55" stroke-dasharray="2 9"/><path class="spin" style="animation-duration:5s;animation-direction:reverse" d="M0 -50 A50 50 0 0 1 43.5 -25.0" fill="none" stroke="#F5E7B8" stroke-width="2" stroke-linecap="round" stroke-opacity=".9"/><g clip-path="url(#c42)">
<rect x="-42" y="-42" width="84" height="84" fill="#171722"/><path class="hp" style="animation-delay:0.00s" transform="translate(0.0 0.0)" d="M0.00,-8.00 L6.93,-4.00 L6.93,4.00 L0.00,8.00 L-6.93,4.00 L-6.93,-4.00 Z" fill="#12121A" stroke="#4a4a5e" stroke-width="1.3"/><path class="hp" style="animation-delay:0.30s" transform="translate(16.1 0.0)" d="M0.00,-8.00 L6.93,-4.00 L6.93,4.00 L0.00,8.00 L-6.93,4.00 L-6.93,-4.00 Z" fill="#12121A" stroke="#4a4a5e" stroke-width="1.3"/><path class="hp" style="animation-delay:0.50s" transform="translate(8.0 13.9)" d="M0.00,-8.00 L6.93,-4.00 L6.93,4.00 L0.00,8.00 L-6.93,4.00 L-6.93,-4.00 Z" fill="#12121A" stroke="#4a4a5e" stroke-width="1.3"/><path class="hp" style="animation-delay:0.70s" transform="translate(-8.0 13.9)" d="M0.00,-8.00 L6.93,-4.00 L6.93,4.00 L0.00,8.00 L-6.93,4.00 L-6.93,-4.00 Z" fill="#12121A" stroke="#4a4a5e" stroke-width="1.3"/><path class="hp" style="animation-delay:0.90s" transform="translate(-16.1 0.0)" d="M0.00,-8.00 L6.93,-4.00 L6.93,4.00 L0.00,8.00 L-6.93,4.00 L-6.93,-4.00 Z" fill="#12121A" stroke="#4a4a5e" stroke-width="1.3"/><path class="hp" style="animation-delay:1.10s" transform="translate(-8.0 -13.9)" d="M0.00,-8.00 L6.93,-4.00 L6.93,4.00 L0.00,8.00 L-6.93,4.00 L-6.93,-4.00 Z" fill="#12121A" stroke="#4a4a5e" stroke-width="1.3"/><path class="hp" style="animation-delay:1.30s" transform="translate(8.0 -13.9)" d="M0.00,-8.00 L6.93,-4.00 L6.93,4.00 L0.00,8.00 L-6.93,4.00 L-6.93,-4.00 Z" fill="#12121A" stroke="#4a4a5e" stroke-width="1.3"/><g><animateMotion dur="5.5s" repeatCount="indefinite" rotate="auto" path="M-30,0 C-30,-24 0,-24 0,0 C0,24 30,24 30,0 C30,-24 0,-24 0,0 C0,24 -30,24 -30,0 Z"/>
<g transform="scale(1.25)"><ellipse class="wg" cx="-.6" cy="-3.6" rx="3.4" ry="1.9" fill="#fff" fill-opacity=".7"/><ellipse class="wg" style="animation-delay:-.05s" cx="-.6" cy="3.6" rx="3.4" ry="1.9" fill="#fff" fill-opacity=".7"/>
<ellipse rx="4.6" ry="3" fill="#C9A84C"/><rect x="-2.2" y="-2.9" width="1.4" height="5.8" fill="#1a1408"/><rect x=".6" y="-2.9" width="1.4" height="5.8" fill="#1a1408"/><circle cx="4.8" r="1.9" fill="#1a1408"/></g></g></g><text class="mono" y="70" text-anchor="middle" font-size="9.5" font-weight="700" letter-spacing="2.4" fill="#C9A84C">APIS</text></g><g transform="translate(470 210)"><circle r="24" fill="#0B0B10" fill-opacity=".78" stroke="#C9A84C" stroke-opacity=".38"/><circle class="spin" style="animation-duration:20s;animation-direction:normal" r="27" fill="none" stroke="#C9A84C" stroke-opacity=".55" stroke-dasharray="1.5 6"/><path class="spin" style="animation-duration:4s;animation-direction:reverse" d="M0 -27 A27 27 0 0 1 23.5 -13.5" fill="none" stroke="#F5E7B8" stroke-width="2" stroke-linecap="round" stroke-opacity=".9"/><g clip-path="url(#c21)">
<rect x="-24" y="-24" width="48" height="48" fill="#171722"/>
<g class="bob"><rect x="-11" y="-2" width="22" height="15" rx="2" fill="none" stroke="#9A98A6" stroke-width="1.4"/><path d="M-11 -2 L0 6 L11 -2" fill="none" stroke="#9A98A6" stroke-width="1.4" stroke-linejoin="round"/>
<circle class="alrt" cx="11" cy="-2" r="3" fill="#F87171"/></g>
<g transform="translate(0 -22)"><g class="swing"><line y1="0" y2="10" stroke="#F5E7B8" stroke-width="1"/><path d="M0 10 V15 A3.4 3.4 0 1 1 -4.4 12.4" fill="none" stroke="#C9A84C" stroke-width="1.7" stroke-linecap="round"/></g></g>
</g><text class="mono" y="42" text-anchor="middle" font-size="8.5" font-weight="700" letter-spacing="2" fill="#9A98A6">PHISHING</text></g><g transform="translate(852 210)"><circle r="24" fill="#0B0B10" fill-opacity=".78" stroke="#C9A84C" stroke-opacity=".38"/><circle class="spin" style="animation-duration:20s;animation-direction:reverse" r="27" fill="none" stroke="#C9A84C" stroke-opacity=".55" stroke-dasharray="1.5 6"/><path class="spin" style="animation-duration:4s;animation-direction:normal" d="M0 -27 A27 27 0 0 1 23.5 -13.5" fill="none" stroke="#F5E7B8" stroke-width="2" stroke-linecap="round" stroke-opacity=".9"/><g clip-path="url(#c21)"><rect x="-24" y="-24" width="48" height="48" fill="#171722"/><rect x="-14.2" y="-14.2" width="11.6" height="11.6" fill="none" stroke="#F5E7B8" stroke-width="1.3"/><rect x="-10.2" y="-10.2" width="3.6" height="3.6" fill="#F5E7B8"/><rect x="2.6" y="-14.2" width="11.6" height="11.6" fill="none" stroke="#F5E7B8" stroke-width="1.3"/><rect x="6.6" y="-10.2" width="3.6" height="3.6" fill="#F5E7B8"/><rect x="-14.2" y="2.6" width="11.6" height="11.6" fill="none" stroke="#F5E7B8" stroke-width="1.3"/><rect x="-10.2" y="6.6" width="3.6" height="3.6" fill="#F5E7B8"/><rect class="qc" style="animation-delay:0.92s" x="-1.6" y="-14.2" width="3.2" height="3.2" fill="#C9A84C"/><rect class="qc" style="animation-delay:0.76s" x="-1.6" y="-10.0" width="3.2" height="3.2" fill="#C9A84C"/><rect class="qc" style="animation-delay:2.01s" x="-14.2" y="-1.6" width="3.2" height="3.2" fill="#C9A84C"/><rect class="qc" style="animation-delay:1.71s" x="-10.0" y="-1.6" width="3.2" height="3.2" fill="#C9A84C"/><rect class="qc" style="animation-delay:0.66s" x="-5.8" y="-1.6" width="3.2" height="3.2" fill="#C9A84C"/><rect class="qc" style="animation-delay:0.66s" x="2.6" y="-1.6" width="3.2" height="3.2" fill="#C9A84C"/><rect class="qc" style="animation-delay:1.19s" x="-1.6" y="2.6" width="3.2" height="3.2" fill="#C9A84C"/><rect class="qc" style="animation-delay:2.36s" x="6.8" y="2.6" width="3.2" height="3.2" fill="#C9A84C"/><rect class="qc" style="animation-delay:0.18s" x="11.0" y="2.6" width="3.2" height="3.2" fill="#C9A84C"/><rect class="qc" style="animation-delay:0.10s" x="2.6" y="6.8" width="3.2" height="3.2" fill="#C9A84C"/><rect class="qc" style="animation-delay:1.37s" x="6.8" y="6.8" width="3.2" height="3.2" fill="#C9A84C"/><rect class="qc" style="animation-delay:0.05s" x="-1.6" y="11.0" width="3.2" height="3.2" fill="#C9A84C"/><rect class="qc" style="animation-delay:0.06s" x="6.8" y="11.0" width="3.2" height="3.2" fill="#C9A84C"/><rect class="qc" style="animation-delay:0.57s" x="11.0" y="11.0" width="3.2" height="3.2" fill="#C9A84C"/>
<g class="qs"><rect x="-17" y="-2" width="34" height="5" fill="#5EEAD4" fill-opacity=".18"/><rect x="-17" y="2" width="34" height="1.4" fill="#5EEAD4"/></g></g><text class="mono" y="42" text-anchor="middle" font-size="8.5" font-weight="700" letter-spacing="2" fill="#9A98A6">QR RISK</text></g>

<text class="mono rise" style="animation-delay:0.1s" x="48" y="112" font-size="12" font-weight="700" letter-spacing="3" fill="#C9A84C">// NETWORK · SECURITY · CLOUD</text>
<text class="sans rise" style="animation-delay:0.3s" x="46" y="176" font-size="54" font-weight="800" letter-spacing="1" fill="url(#nameg)">Shehab Shibli</text>
<g clip-path="url(#nc)"><rect class="shine" x="-140" y="116" width="90" height="80" fill="url(#shg)" transform="skewX(-20)"/></g>
<line class="uline" x1="48" y1="194" x2="300" y2="194" stroke="#C9A84C" stroke-width="2.5" stroke-linecap="round"/>
<circle class="uhead" cx="48" cy="194" r="3.4" fill="#F5E7B8"/>
<text class="sans rise" style="animation-delay:0.9s" x="48" y="230" font-size="18" fill="#EDE9DD">Network Engineer &amp; Cybersecurity Specialist</text>
<text class="mono rise" style="animation-delay:1.1s" x="48" y="260" font-size="12.5" fill="#9A98A6">B.Sc. Network Engineering &amp; Cybersecurity · JUST</text>
<g transform="translate(48 284)"><g class="rise" style="animation-delay:1.4s"><rect width="156" height="34" rx="17" fill="#0B0B10" fill-opacity=".6" stroke="#86EFAC" stroke-opacity=".75"/>
<circle cx="19" cy="17" r="4.2" fill="#86EFAC"/><circle class="ping" cx="19" cy="17" r="4.2" fill="none" stroke="#86EFAC"/>
<text class="mono" x="33" y="21.5" font-size="12.5" font-weight="800" letter-spacing="1.6" fill="#86EFAC">OPEN TO WORK</text></g></g>
<text class="mono" x="876" y="34" text-anchor="end" font-size="11" letter-spacing="2" fill="#9A98A6">AR · EN · HE</text>
<line x1="24" y1="394" x2="876" y2="394" stroke="#2A2A38"/>
<g transform="translate(0 397)"><g mask="url(#tm)"><g class="tick"><text class="mono" x="0.0" y="17" font-size="10.5" letter-spacing="1.2" fill="#9A98A6">APIS</text><rect x="47.0" y="9.5" width="5" height="5" transform="rotate(45 49.5 12)" fill="#C9A84C"/><text class="mono" x="72.0" y="17" font-size="10.5" letter-spacing="1.2" fill="#9A98A6">S.O.S</text><rect x="126.5" y="9.5" width="5" height="5" transform="rotate(45 129.0 12)" fill="#C9A84C"/><text class="mono" x="151.5" y="17" font-size="10.5" letter-spacing="1.2" fill="#9A98A6">SCAMSHIELD</text><rect x="243.5" y="9.5" width="5" height="5" transform="rotate(45 246.0 12)" fill="#C9A84C"/><text class="mono" x="268.5" y="17" font-size="10.5" letter-spacing="1.2" fill="#9A98A6">REAL-TIME ANIMAL DETECTION</text><rect x="480.5" y="9.5" width="5" height="5" transform="rotate(45 483.0 12)" fill="#C9A84C"/><text class="mono" x="505.5" y="17" font-size="10.5" letter-spacing="1.2" fill="#9A98A6">QR RISK SIGNAL</text><rect x="627.5" y="9.5" width="5" height="5" transform="rotate(45 630.0 12)" fill="#C9A84C"/><text class="mono" x="652.5" y="17" font-size="10.5" letter-spacing="1.2" fill="#9A98A6">PHISHING DETECTOR</text><rect x="797.0" y="9.5" width="5" height="5" transform="rotate(45 799.5 12)" fill="#C9A84C"/><text class="mono" x="822.0" y="17" font-size="10.5" letter-spacing="1.2" fill="#9A98A6">LATERAL MOVEMENT DETECTOR</text><rect x="1026.5" y="9.5" width="5" height="5" transform="rotate(45 1029.0 12)" fill="#C9A84C"/><text class="mono" x="1051.5" y="17" font-size="10.5" letter-spacing="1.2" fill="#9A98A6">APIS</text><rect x="1098.5" y="9.5" width="5" height="5" transform="rotate(45 1101.0 12)" fill="#C9A84C"/><text class="mono" x="1123.5" y="17" font-size="10.5" letter-spacing="1.2" fill="#9A98A6">S.O.S</text><rect x="1178.0" y="9.5" width="5" height="5" transform="rotate(45 1180.5 12)" fill="#C9A84C"/><text class="mono" x="1203.0" y="17" font-size="10.5" letter-spacing="1.2" fill="#9A98A6">SCAMSHIELD</text><rect x="1295.0" y="9.5" width="5" height="5" transform="rotate(45 1297.5 12)" fill="#C9A84C"/><text class="mono" x="1320.0" y="17" font-size="10.5" letter-spacing="1.2" fill="#9A98A6">REAL-TIME ANIMAL DETECTION</text><rect x="1532.0" y="9.5" width="5" height="5" transform="rotate(45 1534.5 12)" fill="#C9A84C"/><text class="mono" x="1557.0" y="17" font-size="10.5" letter-spacing="1.2" fill="#9A98A6">QR RISK SIGNAL</text><rect x="1679.0" y="9.5" width="5" height="5" transform="rotate(45 1681.5 12)" fill="#C9A84C"/><text class="mono" x="1704.0" y="17" font-size="10.5" letter-spacing="1.2" fill="#9A98A6">PHISHING DETECTOR</text><rect x="1848.5" y="9.5" width="5" height="5" transform="rotate(45 1851.0 12)" fill="#C9A84C"/><text class="mono" x="1873.5" y="17" font-size="10.5" letter-spacing="1.2" fill="#9A98A6">LATERAL MOVEMENT DETECTOR</text><rect x="2078.0" y="9.5" width="5" height="5" transform="rotate(45 2080.5 12)" fill="#C9A84C"/></g></g></g>
<rect class="glint" x="0" y="-20" width="160" height="470" fill="url(#glg)"/>
</g>
<rect x=".5" y=".5" width="899" height="429" rx="18" fill="none" stroke="#C9A84C" stroke-opacity=".28"/>
<rect x=".5" y=".5" width="899" height="429" rx="18" fill="none" stroke="#C9A84C" stroke-width="5" stroke-opacity=".12" pathLength="1000" stroke-dasharray="130 870" class="chase"/>
<rect x=".5" y=".5" width="899" height="429" rx="18" fill="none" stroke="#F5E7B8" stroke-width="1.8" stroke-opacity=".95" pathLength="1000" stroke-dasharray="90 910" class="chase"/>
</svg>